# xmcd
#
# Track frame offsets:
#	150
#	18599
#	35992
#	53295
#	69173
#	88585
#	103308
#	121619
#	135109
#	152427
#	169409
#	188545
#	206934
#	224324
#	238246
#	258723
#	277556
#
# Disc length: 3934 seconds
#
# Revision: 1
# Processed by: cddbd v1.5.2PL0 Copyright (c) Steve Scherf et al.
# Submitted via: audiograbber 1.83.01
#
DISCID=e60f5c11
DTITLE=ChartBusters - 5134-02
DYEAR=1900
DGENRE=
TTITLE0=Rucker, Darius - Alright By Me
TTITLE1=Moore, Justin - Small Town USA
TTITLE2=Strait, George - Living For The Night
TTITLE3=Evans, Sara - Feels Just Like A Love Song
TTITLE4=Nail, David - Red Light
TTITLE5=Morgan, Craig - Bonfire
TTITLE6=Covington, Bucky - I Want My Life Back
TTITLE7=Church, Eric - Love Your Love The Most
TTITLE8=Glorianna - Wild At Heart
TTITLE9=Williams, Holly - Keep The change
TTITLE10=Shelton, Blake - I'll Just Hold On
TTITLE11=Montgomery Gentry - Long Line Of Losers
TTITLE12=Adkins Trace - All I Ask For Anymore
TTITLE13=Houser, Randy - Boots On
TTITLE14=McBride, Martina - I Just Call You Mine
TTITLE15=Wicks, Chuck - Man Of The House
TTITLE16=Singleton, Johnathan and The Grove - Livin In Paradise
EXTD=
EXTT0=
EXTT1=
EXTT2=
EXTT3=
EXTT4=
EXTT5=
EXTT6=
EXTT7=
EXTT8=
EXTT9=
EXTT10=
EXTT11=
EXTT12=
EXTT13=
EXTT14=
EXTT15=
EXTT16=
PLAYORDER=
